<mxfile host="app.diagrams.net" modified="2024-06-12T11:15:40.158Z" agent="Mozilla/5.0 (Windows NT 10.0; Win64; x64) AppleWebKit/537.36 (KHTML, like Gecko) Chrome/125.0.0.0 Safari/537.36" etag="aSnNqvSCgnb9Vf02_Trn" version="24.5.3" type="github">
  <diagram id="FIQT3pwKjuodvygs0_mC" name="第 1 页">
    <mxGraphModel dx="1434" dy="1915" grid="0" gridSize="10" guides="1" tooltips="1" connect="1" arrows="1" fold="1" page="1" pageScale="1" pageWidth="827" pageHeight="1169" math="0" shadow="0">
      <root>
        <mxCell id="0" />
        <mxCell id="1" parent="0" />
        <mxCell id="L5L_JWcabAk_taaHSs-1-17" style="edgeStyle=orthogonalEdgeStyle;curved=1;rounded=0;orthogonalLoop=1;jettySize=auto;html=1;entryX=0.5;entryY=0;entryDx=0;entryDy=0;" parent="1" source="bA3_Qh9jvu_0rKNAbHTe-5" target="L5L_JWcabAk_taaHSs-1-2" edge="1">
          <mxGeometry relative="1" as="geometry" />
        </mxCell>
        <mxCell id="bA3_Qh9jvu_0rKNAbHTe-5" value="" style="rounded=0;whiteSpace=wrap;html=1;fillColor=#f8cecc;strokeColor=#b85450;" parent="1" vertex="1">
          <mxGeometry x="114" y="159" width="603" height="64" as="geometry" />
        </mxCell>
        <mxCell id="L5L_JWcabAk_taaHSs-1-34" style="edgeStyle=orthogonalEdgeStyle;curved=1;rounded=0;orthogonalLoop=1;jettySize=auto;html=1;entryX=0.5;entryY=0;entryDx=0;entryDy=0;" parent="1" source="bA3_Qh9jvu_0rKNAbHTe-8" target="L5L_JWcabAk_taaHSs-1-33" edge="1">
          <mxGeometry relative="1" as="geometry" />
        </mxCell>
        <mxCell id="bA3_Qh9jvu_0rKNAbHTe-8" value="客户端" style="shape=umlActor;verticalLabelPosition=bottom;verticalAlign=top;html=1;outlineConnect=0;" parent="1" vertex="1">
          <mxGeometry x="401" y="-80" width="30" height="60" as="geometry" />
        </mxCell>
        <mxCell id="L5L_JWcabAk_taaHSs-1-1" value="主机&lt;br&gt;Spring Cloud Gateway" style="rounded=1;whiteSpace=wrap;html=1;fillColor=#fff2cc;strokeColor=#d6b656;" parent="1" vertex="1">
          <mxGeometry x="202" y="169" width="136" height="43" as="geometry" />
        </mxCell>
        <mxCell id="L5L_JWcabAk_taaHSs-1-42" style="edgeStyle=orthogonalEdgeStyle;curved=1;rounded=0;orthogonalLoop=1;jettySize=auto;html=1;entryX=0.5;entryY=0;entryDx=0;entryDy=0;" parent="1" source="L5L_JWcabAk_taaHSs-1-2" target="L5L_JWcabAk_taaHSs-1-25" edge="1">
          <mxGeometry relative="1" as="geometry" />
        </mxCell>
        <mxCell id="L5L_JWcabAk_taaHSs-1-2" value="" style="rounded=0;whiteSpace=wrap;html=1;fillColor=#dae8fc;strokeColor=#6c8ebf;" parent="1" vertex="1">
          <mxGeometry x="115" y="278" width="602" height="288" as="geometry" />
        </mxCell>
        <mxCell id="L5L_JWcabAk_taaHSs-1-5" value="系统管理&lt;br&gt;cbs-system-manage" style="rounded=1;whiteSpace=wrap;html=1;fillColor=#d5e8d4;strokeColor=#82b366;" parent="1" vertex="1">
          <mxGeometry x="182" y="300" width="136" height="43" as="geometry" />
        </mxCell>
        <mxCell id="L5L_JWcabAk_taaHSs-1-6" value="产品管理&lt;br&gt;cbs-product" style="rounded=1;whiteSpace=wrap;html=1;fillColor=#d5e8d4;strokeColor=#82b366;" parent="1" vertex="1">
          <mxGeometry x="182" y="364" width="136" height="43" as="geometry" />
        </mxCell>
        <mxCell id="L5L_JWcabAk_taaHSs-1-7" value="用户组织架构&lt;br&gt;cbs-organization-user" style="rounded=1;whiteSpace=wrap;html=1;fillColor=#d5e8d4;strokeColor=#82b366;" parent="1" vertex="1">
          <mxGeometry x="347" y="300" width="136" height="43" as="geometry" />
        </mxCell>
        <mxCell id="L5L_JWcabAk_taaHSs-1-8" value="客户信息管理&lt;br&gt;cbs-system-manage" style="rounded=1;whiteSpace=wrap;html=1;fillColor=#d5e8d4;strokeColor=#82b366;" parent="1" vertex="1">
          <mxGeometry x="512" y="300" width="136" height="43" as="geometry" />
        </mxCell>
        <mxCell id="L5L_JWcabAk_taaHSs-1-9" value="订单服务&lt;br&gt;cbs-orders" style="rounded=1;whiteSpace=wrap;html=1;fillColor=#d5e8d4;strokeColor=#82b366;" parent="1" vertex="1">
          <mxGeometry x="346" y="364" width="136" height="43" as="geometry" />
        </mxCell>
        <mxCell id="L5L_JWcabAk_taaHSs-1-10" value="基金赎回&lt;br&gt;cbs-fund-redeem" style="rounded=1;whiteSpace=wrap;html=1;fillColor=#d5e8d4;strokeColor=#82b366;" parent="1" vertex="1">
          <mxGeometry x="512" y="364" width="136" height="43" as="geometry" />
        </mxCell>
        <mxCell id="L5L_JWcabAk_taaHSs-1-11" value="增值服务&lt;br&gt;cbs-vip-service" style="rounded=1;whiteSpace=wrap;html=1;fillColor=#d5e8d4;strokeColor=#82b366;" parent="1" vertex="1">
          <mxGeometry x="183" y="430" width="136" height="43" as="geometry" />
        </mxCell>
        <mxCell id="L5L_JWcabAk_taaHSs-1-12" value="报表统计服务&lt;br&gt;cbs-report" style="rounded=1;whiteSpace=wrap;html=1;fillColor=#d5e8d4;strokeColor=#82b366;" parent="1" vertex="1">
          <mxGeometry x="347" y="430" width="136" height="43" as="geometry" />
        </mxCell>
        <mxCell id="L5L_JWcabAk_taaHSs-1-13" value="保险业务&lt;br&gt;cbs-insurance" style="rounded=1;whiteSpace=wrap;html=1;fillColor=#d5e8d4;strokeColor=#82b366;" parent="1" vertex="1">
          <mxGeometry x="513" y="430" width="136" height="43" as="geometry" />
        </mxCell>
        <mxCell id="L5L_JWcabAk_taaHSs-1-14" value="系统公告&lt;br&gt;cbs-notice" style="rounded=1;whiteSpace=wrap;html=1;fillColor=#d5e8d4;strokeColor=#82b366;" parent="1" vertex="1">
          <mxGeometry x="183" y="497" width="136" height="43" as="geometry" />
        </mxCell>
        <mxCell id="L5L_JWcabAk_taaHSs-1-15" value="对外服务&lt;br&gt;cbs-open-api" style="rounded=1;whiteSpace=wrap;html=1;fillColor=#f8cecc;strokeColor=#b85450;" parent="1" vertex="1">
          <mxGeometry x="347" y="497" width="136" height="43" as="geometry" />
        </mxCell>
        <mxCell id="L5L_JWcabAk_taaHSs-1-18" value="网关" style="text;html=1;strokeColor=none;fillColor=none;align=center;verticalAlign=middle;whiteSpace=wrap;rounded=0;" parent="1" vertex="1">
          <mxGeometry x="45" y="176" width="60" height="30" as="geometry" />
        </mxCell>
        <mxCell id="L5L_JWcabAk_taaHSs-1-19" value="" style="shape=curlyBracket;whiteSpace=wrap;html=1;rounded=1;" parent="1" vertex="1">
          <mxGeometry x="90" y="160" width="20" height="61" as="geometry" />
        </mxCell>
        <mxCell id="L5L_JWcabAk_taaHSs-1-23" value="应用层&lt;br&gt;(&lt;font color=&quot;#ff270f&quot;&gt;主备同步&lt;/font&gt;)" style="text;html=1;strokeColor=none;fillColor=none;align=center;verticalAlign=middle;whiteSpace=wrap;rounded=0;" parent="1" vertex="1">
          <mxGeometry x="38" y="407" width="60" height="30" as="geometry" />
        </mxCell>
        <mxCell id="L5L_JWcabAk_taaHSs-1-24" value="" style="shape=curlyBracket;whiteSpace=wrap;html=1;rounded=1;" parent="1" vertex="1">
          <mxGeometry x="90" y="278" width="20" height="288" as="geometry" />
        </mxCell>
        <mxCell id="L5L_JWcabAk_taaHSs-1-25" value="" style="rounded=0;whiteSpace=wrap;html=1;fillColor=#e1d5e7;strokeColor=#9673a6;" parent="1" vertex="1">
          <mxGeometry x="114" y="597" width="604" height="77" as="geometry" />
        </mxCell>
        <mxCell id="L5L_JWcabAk_taaHSs-1-26" value="RDS Mysql" style="shape=cylinder3;whiteSpace=wrap;html=1;boundedLbl=1;backgroundOutline=1;size=15;rounded=0;" parent="1" vertex="1">
          <mxGeometry x="178" y="601.5" width="47" height="68" as="geometry" />
        </mxCell>
        <mxCell id="L5L_JWcabAk_taaHSs-1-27" value="阿里云Redis" style="shape=cylinder3;whiteSpace=wrap;html=1;boundedLbl=1;backgroundOutline=1;size=15;rounded=0;" parent="1" vertex="1">
          <mxGeometry x="385" y="601.5" width="47" height="68" as="geometry" />
        </mxCell>
        <mxCell id="L5L_JWcabAk_taaHSs-1-30" value="存储" style="text;html=1;strokeColor=none;fillColor=none;align=center;verticalAlign=middle;whiteSpace=wrap;rounded=0;" parent="1" vertex="1">
          <mxGeometry x="45" y="619.5" width="60" height="30" as="geometry" />
        </mxCell>
        <mxCell id="L5L_JWcabAk_taaHSs-1-31" value="" style="shape=curlyBracket;whiteSpace=wrap;html=1;rounded=1;" parent="1" vertex="1">
          <mxGeometry x="90" y="597" width="20" height="75" as="geometry" />
        </mxCell>
        <mxCell id="L5L_JWcabAk_taaHSs-1-32" value="阿里云OSS" style="shape=cylinder3;whiteSpace=wrap;html=1;boundedLbl=1;backgroundOutline=1;size=15;rounded=0;" parent="1" vertex="1">
          <mxGeometry x="592" y="601.5" width="47" height="68" as="geometry" />
        </mxCell>
        <mxCell id="L5L_JWcabAk_taaHSs-1-35" style="edgeStyle=orthogonalEdgeStyle;curved=1;rounded=0;orthogonalLoop=1;jettySize=auto;html=1;entryX=0.5;entryY=0;entryDx=0;entryDy=0;" parent="1" source="L5L_JWcabAk_taaHSs-1-33" target="bA3_Qh9jvu_0rKNAbHTe-5" edge="1">
          <mxGeometry relative="1" as="geometry" />
        </mxCell>
        <mxCell id="L5L_JWcabAk_taaHSs-1-33" value="" style="rounded=0;whiteSpace=wrap;html=1;fillColor=#f5f5f5;strokeColor=#666666;fontColor=#333333;" parent="1" vertex="1">
          <mxGeometry x="114" y="55" width="603" height="64" as="geometry" />
        </mxCell>
        <mxCell id="L5L_JWcabAk_taaHSs-1-36" value="负载均衡" style="text;html=1;strokeColor=none;fillColor=none;align=center;verticalAlign=middle;whiteSpace=wrap;rounded=0;" parent="1" vertex="1">
          <mxGeometry x="34" y="72.5" width="60" height="30" as="geometry" />
        </mxCell>
        <mxCell id="L5L_JWcabAk_taaHSs-1-37" value="" style="shape=curlyBracket;whiteSpace=wrap;html=1;rounded=1;" parent="1" vertex="1">
          <mxGeometry x="90" y="56.5" width="20" height="61" as="geometry" />
        </mxCell>
        <mxCell id="L5L_JWcabAk_taaHSs-1-38" value="备机&lt;br&gt;Spring Cloud Gateway" style="rounded=1;whiteSpace=wrap;html=1;fillColor=#fff2cc;strokeColor=#d6b656;" parent="1" vertex="1">
          <mxGeometry x="485" y="169.5" width="136" height="43" as="geometry" />
        </mxCell>
        <mxCell id="L5L_JWcabAk_taaHSs-1-40" value="阿里 SLB 负载均衡" style="rounded=1;whiteSpace=wrap;html=1;fillColor=#e1d5e7;strokeColor=#9673a6;" parent="1" vertex="1">
          <mxGeometry x="349" y="65" width="136" height="43" as="geometry" />
        </mxCell>
      </root>
    </mxGraphModel>
  </diagram>
</mxfile>
